<svg viewBox="0 0 312.2508 146.3917" width="5000px" height="2344.1364470924764px" xmlns="http://www.w3.org/2000/svg" xmlns:xlink="http://www.w3.org/1999/xlink" preserveAspectRatio="none"><defs></defs><style>.a6izo4zJpcolor {fill:#999999;fill-opacity:1;}.aeqaTkoYfhcolors-0 {fill:#999999;fill-opacity:0.98;}.aeqaTkoYfhcolors-1 {fill:#161616;fill-opacity:1;}.aeqaTkoYfhcolors-2 {fill:#999999;fill-opacity:1;}.aIptOCySncolors-0 {fill:#999999;fill-opacity:0.98;}.aIptOCySncolors-1 {fill:#161616;fill-opacity:1;}.aIptOCySncolors-2 {fill:#999999;fill-opacity:1;}.aZt7qPblVMcolors-0 {fill:#999999;fill-opacity:0.98;}.aZt7qPblVMcolors-1 {fill:#161616;fill-opacity:1;}.aZt7qPblVMcolors-2 {fill:#999999;fill-opacity:1;}.companyName {fill:#161616;fill-opacity:1;}</style><g opacity="1" transform="rotate(0 118.92190000000001 0)">
        <svg width="74.4071" height="54.1071" x="118.92190000000001" y="0" version="1.1" preserveAspectRatio="none" viewBox="2.5 15.5 95.02500915527344 69.10000610351562">
          <g transform="matrix(1 0 0 1 0 0)" class="aIptOCySncolors-0"><switch><g><g><path class="st0" d="M72.7,74.4h-4.7v-1.8c0-1.8-1.4-3.2-3.2-3.2H38.1c-1.8,0-3.2,1.4-3.2,3.2v1.8h-4.7c-1.8,0-3.2,1.4-3.2,3.2     v5.5c0,0.7,0.6,1.3,1.3,1.3h46.4c0.7,0,1.3-0.6,1.3-1.3v-5.5C75.9,75.9,74.5,74.4,72.7,74.4z"></path><path class="st0" d="M96.7,68.4L73,44.7l2.7-2.7L63.3,29.6L51.7,41.3L64,53.7l2.7-2.7l23.7,23.7c1,1,2.7,1,3.7,0l2.6-2.6     C97.8,71.1,97.8,69.4,96.7,68.4z"></path><path class="st0" d="M56.5,62.5c1,1,2.6,1,3.7,0l2.4-2.4c1-1,1-2.6,0-3.7L48.8,42.8c-1-1-2.6-1-3.7,0l-2.4,2.4c-1,1-1,2.6,0,3.7     L56.5,62.5z"></path><path class="st0" d="M78.6,40.5c1,1,2.6,1,3.7,0l2.4-2.4c1-1,1-2.6,0-3.7L70.9,20.7c-1-1-2.6-1-3.7,0l-2.4,2.4c-1,1-1,2.6,0,3.7     L78.6,40.5z"></path><path class="st0" d="M30.1,50.2c2.8,0,5.1-2.3,5.1-5.1V20.6c0-2.8-2.3-5.1-5.1-5.1H7.6c-2.8,0-5.1,2.3-5.1,5.1v24.6     c0,2.8,2.3,5.1,5.1,5.1h7.7v33c0,0.7,0.6,1.3,1.3,1.3h4.6c0.7,0,1.3-0.6,1.3-1.3v-33H30.1z M12.8,37.7c0-0.2,0-0.4,0.2-0.6     c0.1-0.2,0.4-0.3,0.6-0.3h2.2c0.3,0,0.7,0.2,0.7,0.6c0.1,0.5,0.6,0.9,1.1,0.9h1.9c1,0,1.8-0.7,1.9-1.6c0.1-0.5-0.1-1-0.5-1.4     c-0.3-0.4-0.8-0.6-1.4-0.6h-1.4c-2.9,0-5.4-2.2-5.7-4.9c-0.3-2.9,1.7-5.4,4.4-5.9v-1.9c0-0.4,0.3-0.8,0.8-0.8h2.2     c0.4,0,0.8,0.3,0.8,0.8v1.9c2.2,0.3,4,2,4.2,4.3c0,0.2,0,0.4-0.2,0.6c-0.1,0.2-0.4,0.3-0.6,0.3h-2.2c-0.4,0-0.7-0.2-0.7-0.6     c-0.1-0.5-0.6-0.9-1.1-0.9h-1.9c-1,0-1.9,0.7-1.9,1.6c-0.1,0.5,0.1,1,0.5,1.4C17,30.8,17.5,31,18,31h1.6c1.5,0,3,0.7,4.1,1.8     c1.1,1.2,1.6,2.7,1.4,4.2c-0.2,2.3-2,4.3-4.4,4.8v1.9c0,0.4-0.3,0.8-0.8,0.8h-2.2c-0.4,0-0.8-0.3-0.8-0.8V42     C14.8,41.7,13.1,39.9,12.8,37.7z"></path></g></g></switch></g>
        </svg>
      </g><g opacity="1" transform="rotate(0 25.5342 125.7112)">
        <svg width="261.1825" height="20.6805" x="25.5342" y="125.7112" version="1.1" preserveAspectRatio="none" viewBox="0.08 -29.68 472.76 37.44">
          <g transform="matrix(1 0 0 1 0 0)" class="a6izo4zJpcolor"><path d="M25.48 0L22.12-7.48L6.52-7.48L3.16 0L0.08 0L12.88-28L15.80-28L28.60 0L25.48 0ZM7.60-9.88L21.04-9.88L14.32-24.92L7.60-9.88Z M50.36-21.04L53.20-21.04L53.20 0L50.48 0L50.48-3.84Q49.36-1.92 47.40-0.86Q45.44 0.20 42.92 0.20L42.92 0.20Q38.80 0.20 36.42-2.10Q34.04-4.40 34.04-8.84L34.04-8.84L34.04-21.04L36.88-21.04L36.88-9.12Q36.88-5.80 38.52-4.08Q40.16-2.36 43.20-2.36L43.20-2.36Q46.52-2.36 48.44-4.38Q50.36-6.40 50.36-10L50.36-10L50.36-21.04Z M71.88 0.20Q68.76 0.20 66.30-1.16Q63.84-2.52 62.44-4.98Q61.04-7.44 61.04-10.52L61.04-10.52Q61.04-13.60 62.44-16.04Q63.84-18.48 66.30-19.84Q68.76-21.20 71.88-21.20L71.88-21.20Q74.60-21.20 76.74-20.14Q78.88-19.08 80.12-17.04L80.12-17.04L78-15.60Q76.96-17.16 75.36-17.94Q73.76-18.72 71.88-18.72L71.88-18.72Q69.60-18.72 67.78-17.70Q65.96-16.68 64.94-14.80Q63.92-12.92 63.92-10.52L63.92-10.52Q63.92-8.08 64.94-6.22Q65.96-4.36 67.78-3.34Q69.60-2.32 71.88-2.32L71.88-2.32Q73.76-2.32 75.36-3.08Q76.96-3.84 78-5.40L78-5.40L80.12-3.96Q78.88-1.92 76.72-0.86Q74.56 0.20 71.88 0.20L71.88 0.20Z M98-3.32L99-1.28Q98.20-0.56 97.02-0.18Q95.84 0.20 94.56 0.20L94.56 0.20Q91.60 0.20 90-1.40Q88.40-3 88.40-5.92L88.40-5.92L88.40-18.64L84.64-18.64L84.64-21.04L88.40-21.04L88.40-25.64L91.24-25.64L91.24-21.04L97.64-21.04L97.64-18.64L91.24-18.64L91.24-6.08Q91.24-4.20 92.18-3.22Q93.12-2.24 94.88-2.24L94.88-2.24Q95.76-2.24 96.58-2.52Q97.40-2.80 98-3.32L98-3.32Z M106.16 0L106.16-21.04L109.00-21.04L109.00 0L106.16 0ZM107.60-25.64Q106.72-25.64 106.12-26.24Q105.52-26.84 105.52-27.68L105.52-27.68Q105.52-28.48 106.12-29.08Q106.72-29.68 107.60-29.68L107.60-29.68Q108.48-29.68 109.08-29.10Q109.68-28.52 109.68-27.72L109.68-27.72Q109.68-26.84 109.08-26.24Q108.48-25.64 107.60-25.64L107.60-25.64Z M127.52 0.20Q124.48 0.20 122.04-1.18Q119.60-2.56 118.20-5Q116.80-7.44 116.80-10.52L116.80-10.52Q116.80-13.60 118.20-16.04Q119.60-18.48 122.04-19.84Q124.48-21.20 127.52-21.20L127.52-21.20Q130.56-21.20 133-19.84Q135.44-18.48 136.82-16.04Q138.20-13.60 138.20-10.52L138.20-10.52Q138.20-7.44 136.82-5Q135.44-2.56 133-1.18Q130.56 0.20 127.52 0.20L127.52 0.20ZM127.52-2.32Q129.76-2.32 131.54-3.34Q133.32-4.36 134.32-6.24Q135.32-8.12 135.32-10.52L135.32-10.52Q135.32-12.92 134.32-14.80Q133.32-16.68 131.54-17.70Q129.76-18.72 127.52-18.72L127.52-18.72Q125.28-18.72 123.50-17.70Q121.72-16.68 120.70-14.80Q119.68-12.92 119.68-10.52L119.68-10.52Q119.68-8.12 120.70-6.24Q121.72-4.36 123.50-3.34Q125.28-2.32 127.52-2.32L127.52-2.32Z M156.72-21.20Q160.68-21.20 163.02-18.90Q165.36-16.60 165.36-12.20L165.36-12.20L165.36 0L162.52 0L162.52-11.92Q162.52-15.20 160.88-16.92Q159.24-18.64 156.20-18.64L156.20-18.64Q152.80-18.64 150.82-16.62Q148.84-14.60 148.84-11.04L148.84-11.04L148.84 0L146 0L146-21.04L148.72-21.04L148.72-17.16Q149.88-19.08 151.94-20.14Q154-21.20 156.72-21.20L156.72-21.20Z M180.72 0.20Q178.16 0.20 175.82-0.54Q173.48-1.28 172.16-2.40L172.16-2.40L173.44-4.64Q174.76-3.60 176.76-2.94Q178.76-2.28 180.92-2.28L180.92-2.28Q183.80-2.28 185.18-3.18Q186.56-4.08 186.56-5.72L186.56-5.72Q186.56-6.88 185.80-7.54Q185.04-8.20 183.88-8.54Q182.72-8.88 180.80-9.20L180.80-9.20Q178.24-9.68 176.68-10.18Q175.12-10.68 174.02-11.88Q172.92-13.08 172.92-15.20L172.92-15.20Q172.92-17.84 175.12-19.52Q177.32-21.20 181.24-21.20L181.24-21.20Q183.28-21.20 185.32-20.66Q187.36-20.12 188.68-19.24L188.68-19.24L187.44-16.96Q184.84-18.76 181.24-18.76L181.24-18.76Q178.52-18.76 177.14-17.80Q175.76-16.84 175.76-15.28L175.76-15.28Q175.76-14.08 176.54-13.36Q177.32-12.64 178.48-12.30Q179.64-11.96 181.68-11.60L181.68-11.60Q184.20-11.12 185.72-10.64Q187.24-10.16 188.32-9Q189.40-7.84 189.40-5.80L189.40-5.80Q189.40-3.04 187.10-1.42Q184.80 0.20 180.72 0.20L180.72 0.20Z M231.40-1.44L229.76 0.44L225.88-3.56Q222.32 0.24 216.52 0.24L216.52 0.24Q213.80 0.24 211.66-0.66Q209.52-1.56 208.32-3.18Q207.12-4.80 207.12-6.88L207.12-6.88Q207.12-9.40 208.72-11.40Q210.32-13.40 214.16-15.60L214.16-15.60Q212.16-17.68 211.40-19.14Q210.64-20.60 210.64-22.24L210.64-22.24Q210.64-24.92 212.56-26.56Q214.48-28.20 217.72-28.20L217.72-28.20Q220.72-28.20 222.48-26.72Q224.24-25.24 224.24-22.64L224.24-22.64Q224.24-20.56 222.84-18.90Q221.44-17.24 218-15.24L218-15.24L225.68-7.32Q226.96-9.60 227.56-12.72L227.56-12.72L229.88-12Q229.12-8.24 227.40-5.56L227.40-5.56L231.40-1.44ZM217.72-26.08Q215.64-26.08 214.46-25.04Q213.28-24 213.28-22.28L213.28-22.28Q213.28-21.04 213.92-19.92Q214.56-18.80 216.44-16.88L216.44-16.88Q219.48-18.64 220.64-19.88Q221.80-21.12 221.80-22.60L221.80-22.60Q221.80-24.20 220.72-25.14Q219.64-26.08 217.72-26.08L217.72-26.08ZM216.68-2.12Q221.32-2.12 224.20-5.28L224.20-5.28L215.76-13.96Q212.44-12.08 211.18-10.56Q209.92-9.04 209.92-7.16L209.92-7.16Q209.92-4.88 211.78-3.50Q213.64-2.12 216.68-2.12L216.68-2.12Z M271.88 0L268.52-7.48L252.92-7.48L249.56 0L246.48 0L259.28-28L262.20-28L275 0L271.88 0ZM254.00-9.88L267.44-9.88L260.72-24.92L254.00-9.88Z M291.88-21.20Q294.84-21.20 297.24-19.86Q299.64-18.52 301-16.08Q302.36-13.64 302.36-10.52L302.36-10.52Q302.36-7.36 301-4.92Q299.64-2.48 297.26-1.14Q294.88 0.20 291.88 0.20L291.88 0.20Q289.32 0.20 287.26-0.86Q285.20-1.92 283.88-3.96L283.88-3.96L283.88 7.76L281.04 7.76L281.04-21.04L283.76-21.04L283.76-16.88Q285.04-18.96 287.14-20.08Q289.24-21.20 291.88-21.20L291.88-21.20ZM291.68-2.32Q293.88-2.32 295.68-3.34Q297.48-4.36 298.50-6.24Q299.52-8.12 299.52-10.52L299.52-10.52Q299.52-12.92 298.50-14.78Q297.48-16.64 295.68-17.68Q293.88-18.72 291.68-18.72L291.68-18.72Q289.44-18.72 287.66-17.68Q285.88-16.64 284.86-14.78Q283.84-12.92 283.84-10.52L283.84-10.52Q283.84-8.12 284.86-6.24Q285.88-4.36 287.66-3.34Q289.44-2.32 291.68-2.32L291.68-2.32Z M321-21.20Q323.96-21.20 326.36-19.86Q328.76-18.52 330.12-16.08Q331.48-13.64 331.48-10.52L331.48-10.52Q331.48-7.36 330.12-4.92Q328.76-2.48 326.38-1.14Q324 0.20 321 0.20L321 0.20Q318.44 0.20 316.38-0.86Q314.32-1.92 313-3.96L313-3.96L313 7.76L310.16 7.76L310.16-21.04L312.88-21.04L312.88-16.88Q314.16-18.96 316.26-20.08Q318.36-21.20 321-21.20L321-21.20ZM320.80-2.32Q323-2.32 324.80-3.34Q326.60-4.36 327.62-6.24Q328.64-8.12 328.64-10.52L328.64-10.52Q328.64-12.92 327.62-14.78Q326.60-16.64 324.80-17.68Q323-18.72 320.80-18.72L320.80-18.72Q318.56-18.72 316.78-17.68Q315-16.64 313.98-14.78Q312.96-12.92 312.96-10.52L312.96-10.52Q312.96-8.12 313.98-6.24Q315-4.36 316.78-3.34Q318.56-2.32 320.80-2.32L320.80-2.32Z M342-16.92Q343-19.04 344.98-20.12Q346.96-21.20 349.88-21.20L349.88-21.20L349.88-18.44L349.20-18.48Q345.88-18.48 344-16.44Q342.12-14.40 342.12-10.72L342.12-10.72L342.12 0L339.28 0L339.28-21.04L342-21.04L342-16.92Z M364.32-21.20Q368.44-21.20 370.64-19.14Q372.84-17.08 372.84-13.04L372.84-13.04L372.84 0L370.12 0L370.12-3.28Q369.16-1.64 367.30-0.72Q365.44 0.20 362.88 0.20L362.88 0.20Q359.36 0.20 357.28-1.48Q355.20-3.16 355.20-5.92L355.20-5.92Q355.20-8.60 357.14-10.24Q359.08-11.88 363.32-11.88L363.32-11.88L370-11.88L370-13.16Q370-15.88 368.48-17.30Q366.96-18.72 364.04-18.72L364.04-18.72Q362.04-18.72 360.20-18.06Q358.36-17.40 357.04-16.24L357.04-16.24L355.76-18.36Q357.36-19.72 359.60-20.46Q361.84-21.20 364.32-21.20L364.32-21.20ZM363.32-2.04Q365.72-2.04 367.44-3.14Q369.16-4.24 370-6.32L370-6.32L370-9.76L363.40-9.76Q358-9.76 358-6L358-6Q358-4.16 359.40-3.10Q360.80-2.04 363.32-2.04L363.32-2.04Z M382.56 0L382.56-21.04L385.40-21.04L385.40 0L382.56 0ZM384-25.64Q383.12-25.64 382.52-26.24Q381.92-26.84 381.92-27.68L381.92-27.68Q381.92-28.48 382.52-29.08Q383.12-29.68 384-29.68L384-29.68Q384.88-29.68 385.48-29.10Q386.08-28.52 386.08-27.72L386.08-27.72Q386.08-26.84 385.48-26.24Q384.88-25.64 384-25.64L384-25.64Z M400.96 0.20Q398.40 0.20 396.06-0.54Q393.72-1.28 392.40-2.40L392.40-2.40L393.68-4.64Q395-3.60 397-2.94Q399-2.28 401.16-2.28L401.16-2.28Q404.04-2.28 405.42-3.18Q406.80-4.08 406.80-5.72L406.80-5.72Q406.80-6.88 406.04-7.54Q405.28-8.20 404.12-8.54Q402.96-8.88 401.04-9.20L401.04-9.20Q398.48-9.68 396.92-10.18Q395.36-10.68 394.26-11.88Q393.16-13.08 393.16-15.20L393.16-15.20Q393.16-17.84 395.36-19.52Q397.56-21.20 401.48-21.20L401.48-21.20Q403.52-21.20 405.56-20.66Q407.60-20.12 408.92-19.24L408.92-19.24L407.68-16.96Q405.08-18.76 401.48-18.76L401.48-18.76Q398.76-18.76 397.38-17.80Q396-16.84 396-15.28L396-15.28Q396-14.08 396.78-13.36Q397.56-12.64 398.72-12.30Q399.88-11.96 401.92-11.60L401.92-11.60Q404.44-11.12 405.96-10.64Q407.48-10.16 408.56-9Q409.64-7.84 409.64-5.80L409.64-5.80Q409.64-3.04 407.34-1.42Q405.04 0.20 400.96 0.20L400.96 0.20Z M424.24-21.20Q428.36-21.20 430.56-19.14Q432.76-17.08 432.76-13.04L432.76-13.04L432.76 0L430.04 0L430.04-3.28Q429.08-1.64 427.22-0.72Q425.36 0.20 422.80 0.20L422.80 0.20Q419.28 0.20 417.20-1.48Q415.12-3.16 415.12-5.92L415.12-5.92Q415.12-8.60 417.06-10.24Q419-11.88 423.24-11.88L423.24-11.88L429.92-11.88L429.92-13.16Q429.92-15.88 428.40-17.30Q426.88-18.72 423.96-18.72L423.96-18.72Q421.96-18.72 420.12-18.06Q418.28-17.40 416.96-16.24L416.96-16.24L415.68-18.36Q417.28-19.72 419.52-20.46Q421.76-21.20 424.24-21.20L424.24-21.20ZM423.24-2.04Q425.64-2.04 427.36-3.14Q429.08-4.24 429.92-6.32L429.92-6.32L429.92-9.76L423.32-9.76Q417.92-9.76 417.92-6L417.92-6Q417.92-4.16 419.32-3.10Q420.72-2.04 423.24-2.04L423.24-2.04Z M442.48 0L442.48-29.68L445.32-29.68L445.32 0L442.48 0Z M460.88 0.20Q458.32 0.20 455.98-0.54Q453.64-1.28 452.32-2.40L452.32-2.40L453.60-4.64Q454.92-3.60 456.92-2.94Q458.92-2.28 461.08-2.28L461.08-2.28Q463.96-2.28 465.34-3.18Q466.72-4.08 466.72-5.72L466.72-5.72Q466.72-6.88 465.96-7.54Q465.20-8.20 464.04-8.54Q462.88-8.88 460.96-9.20L460.96-9.20Q458.40-9.68 456.84-10.18Q455.28-10.68 454.18-11.88Q453.08-13.08 453.08-15.20L453.08-15.20Q453.08-17.84 455.28-19.52Q457.48-21.20 461.40-21.20L461.40-21.20Q463.44-21.20 465.48-20.66Q467.52-20.12 468.84-19.24L468.84-19.24L467.60-16.96Q465.00-18.76 461.40-18.76L461.40-18.76Q458.68-18.76 457.30-17.80Q455.92-16.84 455.92-15.28L455.92-15.28Q455.92-14.08 456.70-13.36Q457.48-12.64 458.64-12.30Q459.80-11.96 461.84-11.60L461.84-11.60Q464.36-11.12 465.88-10.64Q467.40-10.16 468.48-9Q469.56-7.84 469.56-5.80L469.56-5.80Q469.56-3.04 467.26-1.42Q464.96 0.20 460.88 0.20L460.88 0.20Z"></path></g>
        </svg>
      </g><g opacity="1" transform="rotate(0 0 71.3025)">
        <svg width="312.2508" height="39.4041" x="0" y="71.3025" version="1.1" preserveAspectRatio="none" viewBox="2.4 -28 289.08000000000004 36.480000000000004">
          <g transform="matrix(1 0 0 1 0 0)" class="companyName"><path d="M2.40-0.40L2.92-0.40Q3.96-0.40 4.70-1.14Q5.44-1.88 5.48-2.92L5.48-2.92L5.48-25.08Q5.44-26.12 4.70-26.86Q3.96-27.60 2.92-27.60L2.92-27.60L2.40-27.60L2.40-28L11.16-28L11.16-27.60L10.64-27.60Q9.20-27.60 8.44-26.36L8.44-26.36Q8.08-25.76 8.08-25.08L8.08-25.08L8.08-1.24L13.80-1.24Q16.76-1.24 18.32-2.56Q19.88-3.88 20.92-6.48L20.92-6.48L21.32-6.48L19 0L2.40 0L2.40-0.40Z M31.20-22.98Q34.28-24.56 37.98-24.56Q41.68-24.56 44.76-22.98Q47.84-21.40 49.66-18.52Q51.48-15.64 51.48-12Q51.48-8.36 49.66-5.48Q47.84-2.60 44.76-1.02Q41.68 0.56 38.44 0.56Q35.20 0.56 32.72-0.36Q30.24-1.28 28.42-2.92Q26.60-4.56 25.54-6.92Q24.48-9.28 24.48-12.46Q24.48-15.64 26.30-18.52Q28.12-21.40 31.20-22.98ZM30.46-3.82Q33.48-0.64 37.96-0.64Q42.44-0.64 45.48-3.82Q48.52-7 48.52-12Q48.52-17 45.48-20.18Q42.44-23.36 37.96-23.36Q33.48-23.36 30.46-20.18Q27.44-17 27.44-12Q27.44-7 30.46-3.82Z M79.36-24L79.36-23.60L79.04-23.60Q78.16-23.60 77.32-23.02Q76.48-22.44 75.88-21.28L75.88-21.28Q67.16-2.56 66.80-1.68L66.80-1.68Q66.12 0 66.08 0.56L66.08 0.56L65.72 0.56L55.84-21.24Q54.68-23.60 52.76-23.60L52.76-23.60L52.44-23.60L52.44-24L60.64-24L60.64-23.60L60.32-23.60Q59.56-23.60 59.18-23.06Q58.80-22.52 58.80-22.08Q58.80-21.64 58.92-21.16L58.92-21.16L66.08-3.72L73.44-21.08Q73.64-21.60 73.64-22.06Q73.64-22.52 73.24-23.06Q72.84-23.60 72.04-23.60L72.04-23.60L71.76-23.60L71.76-24L79.36-24Z M81.36-0.40L81.92-0.40Q82.88-0.40 83.54-1.02Q84.20-1.64 84.24-2.52L84.24-2.52L84.24-21.52Q84.24-22.40 83.56-23Q82.88-23.60 81.92-23.60L81.92-23.60L81.36-23.60L81.36-24L93.04-24Q94.68-24 95.92-24.24Q97.16-24.48 97.52-24.64L97.52-24.64L97.52-20.08L97.08-20.12L97.08-20.72Q97.08-21.56 96.52-22.16Q95.96-22.76 95.08-22.76L95.08-22.76L86.76-22.76L86.76-12.60L93.60-12.60Q94.40-12.60 94.82-13.08Q95.24-13.56 95.24-14.28L95.24-14.28L95.24-14.80L95.68-14.80L95.68-9.20L95.24-9.20L95.24-9.72Q95.24-10.84 94.40-11.24L94.40-11.24Q94.08-11.36 93.72-11.40L93.72-11.40L86.76-11.40L86.76-1.24L93.04-1.24Q94.88-1.24 96.14-1.88Q97.40-2.52 98.06-3.40Q98.72-4.28 99.40-5.72L99.40-5.72L99.80-5.72L97.60 0L81.36 0L81.36-0.40Z M127.40-0.40L127.40-0.40L127.72-0.40L127.72 0L119.52 0L119.52-0.40L119.84-0.40Q120.60-0.40 121-0.92Q121.40-1.44 121.40-1.90Q121.40-2.36 121.24-2.80L121.24-2.80L119.04-8.12L108.92-8.12L106.72-2.92Q106.52-2.40 106.52-1.94Q106.52-1.48 106.92-0.94Q107.32-0.40 108.12-0.40L108.12-0.40L108.44-0.40L108.44 0L100.80 0L100.80-0.40L101.12-0.40Q101.96-0.40 102.82-0.98Q103.68-1.56 104.24-2.72L104.24-2.72Q113-21.44 113.36-22.32L113.36-22.32Q114.04-24 114.08-24.56L114.08-24.56L114.44-24.56L124.32-2.72Q125.48-0.40 127.40-0.40ZM114.08-20.28L109.44-9.32L118.56-9.32L114.08-20.28Z M157.28-23.60L156.60-23.60Q155.72-23.60 155.08-23.02Q154.44-22.44 154.40-21.60L154.40-21.60L154.40-4.56Q154.40-2.24 154.68-0.16L154.68-0.16L154.76 0.56L154.40 0.56L133.60-19.16L133.60-2.48Q133.60-1.60 134.24-1Q134.88-0.40 135.80-0.40L135.80-0.40L136.48-0.40L136.48 0L128.92 0L128.92-0.40L129.60-0.40Q130.52-0.40 131.16-1Q131.80-1.60 131.80-2.48L131.80-2.48L131.80-19.60Q131.80-22.04 131.52-23.96L131.52-23.96L131.44-24.60L131.88-24.56L152.64-5L152.64-21.60Q152.56-22.44 151.92-23.02Q151.28-23.60 150.40-23.60L150.40-23.60L149.72-23.60L149.72-24L157.28-24L157.28-23.60Z M178.80-22.84L171.56-22.84L171.56-2.52Q171.60-1.28 172.76-0.68L172.76-0.68Q173.28-0.40 173.92-0.40L173.92-0.40L174.36-0.40L174.36 0L166.12 0L166.12-0.40L166.60-0.40Q167.56-0.40 168.24-1.04Q168.92-1.68 168.96-2.56L168.96-2.56L168.96-22.84L161.72-22.84Q160.80-22.84 160.26-22.24Q159.72-21.64 159.72-20.80L159.72-20.80L159.72-20.16L159.28-20.16L159.28-24.68Q160.08-24.36 161.54-24.20Q163-24.04 163.72-24.04L163.72-24.04L176.76-24.04Q179.64-24.04 181.24-24.68L181.24-24.68L181.24-20.16L180.80-20.16L180.80-20.80Q180.80-21.64 180.24-22.24Q179.68-22.84 178.80-22.84L178.80-22.84Z M184-0.40L184.56-0.40Q185.64-0.40 186.44-1.04Q187.24-1.68 187.24-2.56L187.24-2.56L187.24-21.44Q187.24-22.32 186.44-22.96Q185.64-23.60 184.52-23.60L184.52-23.60L184-23.60L184-24L193.04-24L193.04-23.60L192.52-23.60Q191.44-23.60 190.66-23Q189.88-22.40 189.80-21.52L189.80-21.52L189.80-2.52Q189.84-1.64 190.64-1.02Q191.44-0.40 192.52-0.40L192.52-0.40L193.04-0.40L193.08 0L184 0L184-0.40Z M232.76 6.12L232.76 6.12Q238.84 6.12 242.28 2.96L242.28 2.96L242.40 3.12Q242.12 3.84 241.22 4.76Q240.32 5.68 238.72 6.64L238.72 6.64Q235.48 8.48 231.92 8.48L231.92 8.48Q228.28 8.48 224.72 6.96L224.72 6.96Q223.24 6.36 220.32 4.84L220.32 4.84Q213.36 1.20 210.04 0.56L210.04 0.56Q204.32 0.56 200.48-2.96Q196.64-6.48 196.64-12L196.64-12Q196.64-14.72 197.68-17.08Q198.72-19.44 200.50-21.08Q202.28-22.72 204.72-23.64Q207.16-24.56 210.34-24.56Q213.52-24.56 216.54-22.98Q219.56-21.40 221.32-18.52Q223.08-15.64 223.08-12L223.08-12Q223.08-7.36 220.30-4.06Q217.52-0.76 213.08 0.20L213.08 0.20Q216.52 1.20 224.96 4.56L224.96 4.56Q228.84 6.12 232.76 6.12ZM202.54-20.18Q199.60-17 199.60-12Q199.60-7 202.54-3.82Q205.48-0.64 209.86-0.64Q214.24-0.64 217.20-3.82Q220.16-7 220.16-12Q220.16-17 217.20-20.18Q214.24-23.36 209.86-23.36Q205.48-23.36 202.54-20.18Z M251.92-24L251.92-23.60L251.32-23.60Q250.24-23.60 249.68-22.76L249.68-22.76Q249.44-22.40 249.40-21.92L249.40-21.92L249.40-8.44Q249.40-4.28 246.74-1.86Q244.08 0.56 239.44 0.56Q234.80 0.56 232.12-1.84Q229.44-4.24 229.44-8.40L229.44-8.40L229.44-21.88Q229.44-22.60 228.88-23.10Q228.32-23.60 227.52-23.60L227.52-23.60L226.92-23.60L226.92-24L234.52-24L234.52-23.60L233.92-23.60Q233.12-23.60 232.56-23.10Q232.00-22.60 232.00-21.88L232.00-21.88L232.00-8.88Q232.00-5 233.98-2.76Q235.96-0.52 239.58-0.52Q243.20-0.52 245.38-2.64Q247.56-4.76 247.56-8.44L247.56-8.44L247.56-21.88Q247.52-22.64 246.98-23.12Q246.44-23.60 245.64-23.60L245.64-23.60L245.04-23.60L245.04-24L251.92-24Z M255.52-0.40L256.08-0.40Q257.04-0.40 257.70-1.02Q258.36-1.64 258.40-2.52L258.40-2.52L258.40-21.52Q258.40-22.40 257.72-23Q257.04-23.60 256.08-23.60L256.08-23.60L255.52-23.60L255.52-24L267.20-24Q268.84-24 270.08-24.24Q271.32-24.48 271.68-24.64L271.68-24.64L271.68-20.08L271.24-20.12L271.24-20.72Q271.24-21.56 270.68-22.16Q270.12-22.76 269.24-22.76L269.24-22.76L260.92-22.76L260.92-12.60L267.76-12.60Q268.56-12.60 268.98-13.08Q269.40-13.56 269.40-14.28L269.40-14.28L269.40-14.80L269.84-14.80L269.84-9.20L269.40-9.20L269.40-9.72Q269.40-10.84 268.56-11.24L268.56-11.24Q268.24-11.36 267.88-11.40L267.88-11.40L260.92-11.40L260.92-1.24L267.20-1.24Q269.04-1.24 270.30-1.88Q271.56-2.52 272.22-3.40Q272.88-4.28 273.56-5.72L273.56-5.72L273.96-5.72L271.76 0L255.52 0L255.52-0.40Z M277.48-1.32L277.48-1.32Q277.36-1.80 277.36-3.28Q277.36-4.76 277.88-6.28L277.88-6.28L278.36-6.28Q278.32-5.92 278.32-5.56L278.32-5.56Q278.32-3.40 279.74-2.02Q281.16-0.64 283.68-0.64L283.68-0.64Q286.32-0.64 287.80-1.86Q289.28-3.08 289.28-5.02Q289.28-6.96 287.84-8.24L287.84-8.24L279.84-14.40Q277.92-16.04 277.92-18.80L277.92-18.80Q277.92-20.36 278.78-21.68Q279.64-23 281.18-23.78Q282.72-24.56 284.80-24.56Q286.88-24.56 288.48-24.20L288.48-24.20L289.80-24.20L289.88-19.84L289.44-19.84Q289.44-21.52 288.28-22.44Q287.12-23.36 284.96-23.36Q282.80-23.36 281.40-22.26Q280-21.16 280-19.42Q280-17.68 281.56-16.40L281.56-16.40L289.64-10.16Q291.48-8.64 291.48-5.92Q291.48-3.20 289.42-1.32Q287.36 0.56 284.40 0.56L284.40 0.56Q282.44 0.56 280.48 0.08Q278.52-0.40 277.48-1.32Z"></path></g>
        </svg>
      </g><g opacity="1" transform="rotate(0 0 33.64030000000001)">
        <svg width="100" height="2.3447" x="0" y="33.64030000000001" version="1.1" preserveAspectRatio="none" viewBox="7.300000190734863 49 85.30000305175781 2">
          <g transform="matrix(1 0 0 1 0 0)" class="aZt7qPblVMcolors-0"><g><path d="M91.7,49H8.3c-0.6,0-1,0.4-1,1s0.4,1,1,1h83.3c0.6,0,1-0.4,1-1S92.2,49,91.7,49z"></path></g></g>
        </svg>
      </g><g opacity="1" transform="rotate(0 212.25080000000003 33.64030000000001)">
        <svg width="100" height="2.3447" x="212.25080000000003" y="33.64030000000001" version="1.1" preserveAspectRatio="none" viewBox="7.300000190734863 49 85.30000305175781 2">
          <g transform="matrix(1 0 0 1 0 0)" class="aeqaTkoYfhcolors-0"><g><path d="M91.7,49H8.3c-0.6,0-1,0.4-1,1s0.4,1,1,1h83.3c0.6,0,1-0.4,1-1S92.2,49,91.7,49z"></path></g></g>
        </svg>
      </g></svg>