<svg viewBox="0 0 423.2131 194.2839" width="5000px" height="2295.3436824043415px" xmlns="http://www.w3.org/2000/svg" xmlns:xlink="http://www.w3.org/1999/xlink" preserveAspectRatio="none"><defs></defs><style>.aJ9wDtsmk0colors-0 {fill:#B09E80;fill-opacity:0.99;}.companyName {fill:#E9E9E9;fill-opacity:1;}.icon1 {fill:#B09E80;fill-opacity:0.98;}.shapeStroke-str {stroke:#E9E9E9;stroke-opacity:1;}.text {fill:#B09E80;fill-opacity:1;}</style><g opacity="1" transform="rotate(0 40.0106 169.05589999999998)">
<svg width="343.192" height="25.228" x="40.0106" y="169.05589999999998" version="1.1" preserveAspectRatio="none" viewBox="-0.04 -30.28 517.4799999999999 38.040000000000006">
  <g transform="matrix(1 0 0 1 0 0)" class="text"><path d="M25.12 0L22.04-7L7.16-7L4.08 0L-0.04 0L12.64-28L16.60-28L29.32 0L25.12 0ZM8.56-10.20L20.64-10.20L14.60-23.92L8.56-10.20Z M52.44-21.20L56.28-21.20L56.28 0L52.64 0L52.64-3.20Q51.48-1.56 49.58-0.66Q47.68 0.24 45.44 0.24L45.44 0.24Q41.20 0.24 38.76-2.10Q36.32-4.44 36.32-9L36.32-9L36.32-21.20L40.16-21.20L40.16-9.44Q40.16-6.36 41.64-4.78Q43.12-3.20 45.88-3.20L45.88-3.20Q48.92-3.20 50.68-5.04Q52.44-6.88 52.44-10.24L52.44-10.24L52.44-21.20Z M76.84 0.24Q73.60 0.24 71.06-1.16Q68.52-2.56 67.08-5.02Q65.64-7.48 65.64-10.60L65.64-10.60Q65.64-13.72 67.08-16.18Q68.52-18.64 71.06-20.02Q73.60-21.40 76.84-21.40L76.84-21.40Q79.72-21.40 81.98-20.24Q84.24-19.08 85.48-16.88L85.48-16.88L82.56-15Q81.56-16.52 80.08-17.28Q78.60-18.04 76.80-18.04L76.80-18.04Q74.72-18.04 73.06-17.12Q71.40-16.20 70.46-14.50Q69.52-12.80 69.52-10.60L69.52-10.60Q69.52-8.36 70.46-6.66Q71.40-4.96 73.06-4.04Q74.72-3.12 76.80-3.12L76.80-3.12Q78.60-3.12 80.08-3.88Q81.56-4.64 82.56-6.16L82.56-6.16L85.48-4.32Q84.24-2.12 81.98-0.94Q79.72 0.24 76.84 0.24L76.84 0.24Z M105.44-4L106.64-1.24Q105.80-0.52 104.56-0.14Q103.32 0.24 102.00 0.24L102.00 0.24Q98.80 0.24 97.04-1.48Q95.28-3.20 95.28-6.40L95.28-6.40L95.28-18.04L91.68-18.04L91.68-21.20L95.28-21.20L95.28-25.84L99.12-25.84L99.12-21.20L105.20-21.20L105.20-18.04L99.12-18.04L99.12-6.56Q99.12-4.84 99.98-3.92Q100.84-3 102.44-3L102.44-3Q104.20-3 105.44-4L105.44-4Z M115.28 0L115.28-21.20L119.12-21.20L119.12 0L115.28 0ZM117.20-25.28Q116.08-25.28 115.34-26Q114.60-26.72 114.60-27.76L114.60-27.76Q114.60-28.80 115.34-29.54Q116.08-30.28 117.20-30.28L117.20-30.28Q118.32-30.28 119.06-29.58Q119.80-28.88 119.80-27.84L119.80-27.84Q119.80-26.76 119.06-26.02Q118.32-25.28 117.20-25.28L117.20-25.28Z M139.52 0.24Q136.36 0.24 133.84-1.16Q131.32-2.56 129.90-5.02Q128.48-7.48 128.48-10.60L128.48-10.60Q128.48-13.72 129.90-16.18Q131.32-18.64 133.84-20.02Q136.36-21.40 139.52-21.40L139.52-21.40Q142.68-21.40 145.18-20.02Q147.68-18.64 149.10-16.18Q150.52-13.72 150.52-10.60L150.52-10.60Q150.52-7.48 149.10-5.02Q147.68-2.56 145.18-1.16Q142.68 0.24 139.52 0.24L139.52 0.24ZM139.52-3.12Q141.56-3.12 143.18-4.06Q144.80-5 145.72-6.70Q146.64-8.40 146.64-10.60L146.64-10.60Q146.64-12.80 145.72-14.50Q144.80-16.20 143.18-17.12Q141.56-18.04 139.52-18.04L139.52-18.04Q137.48-18.04 135.86-17.12Q134.24-16.20 133.30-14.50Q132.36-12.80 132.36-10.60L132.36-10.60Q132.36-8.40 133.30-6.70Q134.24-5 135.86-4.06Q137.48-3.12 139.52-3.12L139.52-3.12Z M171.16-21.40Q175.20-21.40 177.58-19.06Q179.96-16.72 179.96-12.20L179.96-12.20L179.96 0L176.12 0L176.12-11.76Q176.12-14.84 174.64-16.40Q173.16-17.96 170.40-17.96L170.40-17.96Q167.28-17.96 165.48-16.14Q163.68-14.32 163.68-10.92L163.68-10.92L163.68 0L159.84 0L159.84-21.20L163.52-21.20L163.52-18Q164.68-19.64 166.66-20.52Q168.64-21.40 171.16-21.40L171.16-21.40Z M197.16 0.24Q194.56 0.24 192.16-0.46Q189.76-1.16 188.40-2.24L188.40-2.24L190.00-5.28Q191.40-4.28 193.40-3.68Q195.40-3.08 197.44-3.08L197.44-3.08Q202.48-3.08 202.48-5.96L202.48-5.96Q202.48-6.92 201.80-7.48Q201.12-8.04 200.10-8.30Q199.08-8.56 197.20-8.88L197.20-8.88Q194.64-9.28 193.02-9.80Q191.40-10.32 190.24-11.56Q189.08-12.80 189.08-15.04L189.08-15.04Q189.08-17.92 191.48-19.66Q193.88-21.40 197.92-21.40L197.92-21.40Q200.04-21.40 202.16-20.88Q204.28-20.36 205.64-19.48L205.64-19.48L204.00-16.44Q201.40-18.12 197.88-18.12L197.88-18.12Q195.44-18.12 194.16-17.32Q192.88-16.52 192.88-15.20L192.88-15.20Q192.88-14.16 193.60-13.56Q194.32-12.96 195.38-12.68Q196.44-12.40 198.36-12.04L198.36-12.04Q200.92-11.60 202.50-11.10Q204.08-10.60 205.20-9.40Q206.32-8.20 206.32-6.04L206.32-6.04Q206.32-3.16 203.86-1.46Q201.40 0.24 197.16 0.24L197.16 0.24Z M253.08-2.12L250.92 0.44L247.20-3.28Q243.48 0.32 237.84 0.32L237.84 0.32Q235.04 0.32 232.80-0.60Q230.56-1.52 229.30-3.18Q228.04-4.84 228.04-6.96L228.04-6.96Q228.04-9.52 229.62-11.50Q231.20-13.48 234.84-15.56L234.84-15.56Q233-17.40 232.24-18.88Q231.48-20.36 231.48-21.96L231.48-21.96Q231.48-24.80 233.54-26.52Q235.60-28.24 239.04-28.24L239.04-28.24Q242.24-28.24 244.12-26.68Q246-25.12 246-22.40L246-22.40Q246-20.28 244.62-18.60Q243.24-16.92 240.04-15.08L240.04-15.08L246.96-8.20Q248.16-10.48 248.68-13.28L248.68-13.28L251.76-12.28Q251.04-8.60 249.32-5.88L249.32-5.88L253.08-2.12ZM239.04-25.44Q237.16-25.44 236.10-24.50Q235.04-23.56 235.04-22.04L235.04-22.04Q235.04-20.96 235.62-19.96Q236.20-18.96 237.88-17.24L237.88-17.24Q240.64-18.80 241.70-19.92Q242.76-21.04 242.76-22.36L242.76-22.36Q242.76-23.76 241.78-24.60Q240.80-25.44 239.04-25.44L239.04-25.44ZM238.08-2.88Q242.24-2.88 244.92-5.52L244.92-5.52L236.96-13.44Q234.08-11.84 232.94-10.46Q231.80-9.08 231.80-7.36L231.80-7.36Q231.80-5.36 233.54-4.12Q235.28-2.88 238.08-2.88L238.08-2.88Z M297.56 0L294.48-7L279.60-7L276.52 0L272.40 0L285.08-28L289.04-28L301.76 0L297.56 0ZM281-10.20L293.08-10.20L287.04-23.92L281-10.20Z M320.60-21.40Q323.68-21.40 326.12-20.04Q328.56-18.68 329.94-16.24Q331.32-13.80 331.32-10.60L331.32-10.60Q331.32-7.40 329.94-4.94Q328.56-2.48 326.12-1.12Q323.68 0.24 320.60 0.24L320.60 0.24Q318.32 0.24 316.42-0.64Q314.52-1.52 313.20-3.20L313.20-3.20L313.20 7.76L309.36 7.76L309.36-21.20L313.04-21.20L313.04-17.84Q314.32-19.60 316.28-20.50Q318.24-21.40 320.60-21.40L320.60-21.40ZM320.28-3.12Q322.32-3.12 323.94-4.06Q325.56-5 326.50-6.70Q327.44-8.40 327.44-10.60L327.44-10.60Q327.44-12.80 326.50-14.50Q325.56-16.20 323.94-17.12Q322.32-18.04 320.28-18.04L320.28-18.04Q318.28-18.04 316.66-17.10Q315.04-16.16 314.10-14.48Q313.16-12.80 313.16-10.60L313.16-10.60Q313.16-8.40 314.08-6.70Q315-5 316.64-4.06Q318.28-3.12 320.28-3.12L320.28-3.12Z M351.88-21.40Q354.96-21.40 357.40-20.04Q359.84-18.68 361.22-16.24Q362.60-13.80 362.60-10.60L362.60-10.60Q362.60-7.40 361.22-4.94Q359.84-2.48 357.40-1.12Q354.96 0.24 351.88 0.24L351.88 0.24Q349.60 0.24 347.70-0.64Q345.80-1.52 344.48-3.20L344.48-3.20L344.48 7.76L340.64 7.76L340.64-21.20L344.32-21.20L344.32-17.84Q345.60-19.60 347.56-20.50Q349.52-21.40 351.88-21.40L351.88-21.40ZM351.56-3.12Q353.60-3.12 355.22-4.06Q356.84-5 357.78-6.70Q358.72-8.40 358.72-10.60L358.72-10.60Q358.72-12.80 357.78-14.50Q356.84-16.20 355.22-17.12Q353.60-18.04 351.56-18.04L351.56-18.04Q349.56-18.04 347.94-17.10Q346.32-16.16 345.38-14.48Q344.44-12.80 344.44-10.60L344.44-10.60Q344.44-8.40 345.36-6.70Q346.28-5 347.92-4.06Q349.56-3.12 351.56-3.12L351.56-3.12Z M375.60-17.64Q376.60-19.48 378.56-20.44Q380.52-21.40 383.32-21.40L383.32-21.40L383.32-17.68Q383-17.72 382.44-17.72L382.44-17.72Q379.32-17.72 377.54-15.86Q375.76-14 375.76-10.56L375.76-10.56L375.76 0L371.92 0L371.92-21.20L375.60-21.20L375.60-17.64Z M399.72-21.40Q404.12-21.40 406.46-19.24Q408.80-17.08 408.80-12.80L408.80-12.80L408.80 0L405.16 0L405.16-2.80Q404.20-1.32 402.42-0.54Q400.64 0.24 398.20 0.24L398.20 0.24Q394.64 0.24 392.50-1.48Q390.36-3.20 390.36-6L390.36-6Q390.36-8.80 392.40-10.50Q394.44-12.20 398.88-12.20L398.88-12.20L404.96-12.20L404.96-12.96Q404.96-15.44 403.52-16.76Q402.08-18.08 399.28-18.08L399.28-18.08Q397.40-18.08 395.60-17.46Q393.80-16.84 392.56-15.80L392.56-15.80L390.96-18.68Q392.60-20 394.88-20.70Q397.16-21.40 399.72-21.40L399.72-21.40ZM398.84-2.72Q401.04-2.72 402.64-3.70Q404.24-4.68 404.96-6.48L404.96-6.48L404.96-9.44L399.04-9.44Q394.16-9.44 394.16-6.16L394.16-6.16Q394.16-4.56 395.40-3.64Q396.64-2.72 398.84-2.72L398.84-2.72Z M419.92 0L419.92-21.20L423.76-21.20L423.76 0L419.92 0ZM421.84-25.28Q420.72-25.28 419.98-26Q419.24-26.72 419.24-27.76L419.24-27.76Q419.24-28.80 419.98-29.54Q420.72-30.28 421.84-30.28L421.84-30.28Q422.96-30.28 423.70-29.58Q424.44-28.88 424.44-27.84L424.44-27.84Q424.44-26.76 423.70-26.02Q422.96-25.28 421.84-25.28L421.84-25.28Z M441.16 0.24Q438.56 0.24 436.16-0.46Q433.76-1.16 432.40-2.24L432.40-2.24L434-5.28Q435.40-4.28 437.40-3.68Q439.40-3.08 441.44-3.08L441.44-3.08Q446.48-3.08 446.48-5.96L446.48-5.96Q446.48-6.92 445.80-7.48Q445.12-8.04 444.10-8.30Q443.08-8.56 441.20-8.88L441.20-8.88Q438.64-9.28 437.02-9.80Q435.40-10.32 434.24-11.56Q433.08-12.80 433.08-15.04L433.08-15.04Q433.08-17.92 435.48-19.66Q437.88-21.40 441.92-21.40L441.92-21.40Q444.04-21.40 446.16-20.88Q448.28-20.36 449.64-19.48L449.64-19.48L448-16.44Q445.40-18.12 441.88-18.12L441.88-18.12Q439.44-18.12 438.16-17.32Q436.88-16.52 436.88-15.20L436.88-15.20Q436.88-14.16 437.60-13.56Q438.32-12.96 439.38-12.68Q440.44-12.40 442.36-12.04L442.36-12.04Q444.92-11.60 446.50-11.10Q448.08-10.60 449.20-9.40Q450.32-8.20 450.32-6.04L450.32-6.04Q450.32-3.16 447.86-1.46Q445.40 0.24 441.16 0.24L441.16 0.24Z M466.84-21.40Q471.24-21.40 473.58-19.24Q475.92-17.08 475.92-12.80L475.92-12.80L475.92 0L472.28 0L472.28-2.80Q471.32-1.32 469.54-0.54Q467.76 0.24 465.32 0.24L465.32 0.24Q461.76 0.24 459.62-1.48Q457.48-3.20 457.48-6L457.48-6Q457.48-8.80 459.52-10.50Q461.56-12.20 466-12.20L466-12.20L472.08-12.20L472.08-12.96Q472.08-15.44 470.64-16.76Q469.20-18.08 466.40-18.08L466.40-18.08Q464.52-18.08 462.72-17.46Q460.92-16.84 459.68-15.80L459.68-15.80L458.08-18.68Q459.72-20 462-20.70Q464.28-21.40 466.84-21.40L466.84-21.40ZM465.96-2.72Q468.16-2.72 469.76-3.70Q471.36-4.68 472.08-6.48L472.08-6.48L472.08-9.44L466.16-9.44Q461.28-9.44 461.28-6.16L461.28-6.16Q461.28-4.56 462.52-3.64Q463.76-2.72 465.96-2.72L465.96-2.72Z M487.04 0L487.04-29.68L490.88-29.68L490.88 0L487.04 0Z M508.28 0.24Q505.68 0.24 503.28-0.46Q500.88-1.16 499.52-2.24L499.52-2.24L501.12-5.28Q502.52-4.28 504.52-3.68Q506.52-3.08 508.56-3.08L508.56-3.08Q513.60-3.08 513.60-5.96L513.60-5.96Q513.60-6.92 512.92-7.48Q512.24-8.04 511.22-8.30Q510.20-8.56 508.32-8.88L508.32-8.88Q505.76-9.28 504.14-9.80Q502.52-10.32 501.36-11.56Q500.20-12.80 500.20-15.04L500.20-15.04Q500.20-17.92 502.60-19.66Q505.00-21.40 509.04-21.40L509.04-21.40Q511.16-21.40 513.28-20.88Q515.40-20.36 516.76-19.48L516.76-19.48L515.12-16.44Q512.52-18.12 509.00-18.12L509.00-18.12Q506.56-18.12 505.28-17.32Q504.00-16.52 504.00-15.20L504.00-15.20Q504.00-14.16 504.72-13.56Q505.44-12.96 506.50-12.68Q507.56-12.40 509.48-12.04L509.48-12.04Q512.04-11.60 513.62-11.10Q515.20-10.60 516.32-9.40Q517.44-8.20 517.44-6.04L517.44-6.04Q517.44-3.16 514.98-1.46Q512.52 0.24 508.28 0.24L508.28 0.24Z"></path></g>
</svg>
</g><g opacity="1" transform="rotate(0 9.61399999999999 43.32599999999999)">
<svg width="139.6" height="3.3929" x="9.61399999999999" y="43.32599999999999" version="1.1" preserveAspectRatio="none" viewBox="0 0 139.6 3.3929">
  <rect x="0" y="0" width="139.6" height="3.3929" class="icon1 shapeStroke-str" style="stroke-width:0;" rx="0px" ry="0px"></rect>
</svg>
</g><g opacity="1" transform="rotate(0 261.916 43.32599999999999)">
<svg width="139.6" height="3.3929" x="261.916" y="43.32599999999999" version="1.1" preserveAspectRatio="none" viewBox="0 0 139.6 3.3929">
  <rect x="0" y="0" width="139.6" height="3.3929" class="icon1 shapeStroke-str" style="stroke-width:0;" rx="0px" ry="0px"></rect>
</svg>
</g><g opacity="1" transform="rotate(0 0 79.49870000000001)">
<svg width="423.2131" height="82.5572" x="0" y="79.49870000000001" version="1.1" preserveAspectRatio="none" viewBox="-2.12 -25.44 180.24 35.16">
  <g transform="matrix(1 0 0 1 0 0)" class="companyName"><path d="M11.68-25Q11.80-25 11.80-24.76Q11.80-24.52 11.68-24.52L11.68-24.52Q10.56-24.52 10.02-24.28Q9.48-24.04 9.30-23.46Q9.12-22.88 9.12-21.68L9.12-21.68L9.12 0.48Q9.12 4.80 7.02 7.26Q4.92 9.72 1.12 9.72L1.12 9.72Q-0.32 9.72-1.22 9.14Q-2.12 8.56-2.12 7.52L-2.12 7.52Q-2.12 6.80-1.64 6.26Q-1.16 5.72-0.28 5.72L-0.28 5.72Q0.60 5.72 1.08 6.22Q1.56 6.72 1.96 7.60L1.96 7.60Q2.24 8.24 2.52 8.56Q2.80 8.88 3.20 8.88L3.20 8.88Q4.24 8.88 4.74 7.42Q5.24 5.96 5.24 2.64L5.24 2.64L5.24-21.76Q5.24-22.96 4.98-23.52Q4.72-24.08 3.98-24.30Q3.24-24.52 1.68-24.52L1.68-24.52Q1.60-24.52 1.60-24.76Q1.60-25 1.68-25L1.68-25L4.08-24.96Q6-24.88 7.12-24.88L7.12-24.88Q8.20-24.88 9.88-24.96L9.88-24.96L11.68-25Z M43.76-0.48Q43.96-0.48 43.96-0.24Q43.96 0 43.76 0L43.76 0Q43 0 41.32-0.08L41.32-0.08Q39.64-0.16 38.88-0.16L38.88-0.16Q37.88-0.16 36.52-0.08L36.52-0.08Q35.16 0 34.40 0L34.40 0Q34.24 0 34.24-0.24Q34.24-0.48 34.40-0.48L34.40-0.48Q35.56-0.48 36.10-0.74Q36.64-1 36.64-1.60L36.64-1.60Q36.64-2.20 35.96-3.64L35.96-3.64L32.92-9.80L23.24-9.80L21.32-5.48Q20.80-4.28 20.80-3.32L20.80-3.32Q20.80-1.92 21.80-1.20Q22.80-0.48 24.60-0.48L24.60-0.48Q24.80-0.48 24.80-0.24Q24.80 0 24.60 0L24.60 0Q23.88 0 22.52-0.08L22.52-0.08Q21-0.16 19.88-0.16L19.88-0.16Q18.80-0.16 17.36-0.08L17.36-0.08Q16.08 0 15.24 0L15.24 0Q15.04 0 15.04-0.24Q15.04-0.48 15.24-0.48L15.24-0.48Q16.36-0.48 17.12-0.92Q17.88-1.36 18.60-2.50Q19.32-3.64 20.32-5.88L20.32-5.88L28.92-25.24Q29-25.36 29.28-25.36L29.28-25.36Q29.56-25.36 29.60-25.24L29.60-25.24L39.40-5.48Q40.80-2.60 41.74-1.54Q42.68-0.48 43.76-0.48L43.76-0.48ZM27.84-20.12L23.68-10.80L32.44-10.80L27.84-20.12Z M52.32-20.76Q52.32-19.28 53.06-18.14Q53.80-17 54.90-16.16Q56.00-15.32 57.88-14.16L57.88-14.16Q59.92-12.88 61.10-11.96Q62.28-11.04 63.10-9.70Q63.92-8.36 63.92-6.56L63.92-6.56Q63.92-4.52 62.86-2.92Q61.80-1.32 59.86-0.42Q57.92 0.48 55.44 0.48L55.44 0.48Q53.76 0.48 51.98 0.04Q50.20-0.40 49.28-1.04L49.28-1.04Q48.92-1.28 48.88-1.80L48.88-1.80L48.64-7.88L48.64-7.92Q48.64-8.08 48.84-8.10Q49.04-8.12 49.08-7.96L49.08-7.96Q50.40-4.64 52.10-2.52Q53.80-0.40 56.44-0.40L56.44-0.40Q58.16-0.40 59.32-1.34Q60.48-2.28 60.48-4.48L60.48-4.48Q60.48-6.24 59.70-7.56Q58.92-8.88 57.78-9.76Q56.64-10.64 54.68-11.92L54.68-11.92Q52.76-13.16 51.68-14.02Q50.60-14.88 49.84-16.14Q49.08-17.40 49.08-19.08L49.08-19.08Q49.08-21.16 50.24-22.60Q51.40-24.04 53.26-24.74Q55.12-25.44 57.16-25.44L57.16-25.44Q58.52-25.44 59.88-25.18Q61.24-24.92 62.16-24.52L62.16-24.52Q62.76-24.28 62.76-23.76L62.76-23.76L62.88-18.32Q62.88-18.20 62.66-18.16Q62.44-18.12 62.40-18.24L62.40-18.24Q61.60-20.68 60.26-22.66Q58.92-24.64 56.24-24.64L56.24-24.64Q54.44-24.64 53.38-23.60Q52.32-22.56 52.32-20.76L52.32-20.76Z M96.48-0.48Q96.68-0.48 96.68-0.24Q96.68 0 96.48 0L96.48 0Q95.72 0 94.04-0.08L94.04-0.08Q92.36-0.16 91.60-0.16L91.60-0.16Q90.60-0.16 89.24-0.08L89.24-0.08Q87.88 0 87.12 0L87.12 0Q86.96 0 86.96-0.24Q86.96-0.48 87.12-0.48L87.12-0.48Q88.28-0.48 88.82-0.74Q89.36-1 89.36-1.60L89.36-1.60Q89.36-2.20 88.68-3.64L88.68-3.64L85.64-9.80L75.96-9.80L74.04-5.48Q73.52-4.28 73.52-3.32L73.52-3.32Q73.52-1.92 74.52-1.20Q75.52-0.48 77.32-0.48L77.32-0.48Q77.52-0.48 77.52-0.24Q77.52 0 77.32 0L77.32 0Q76.60 0 75.24-0.08L75.24-0.08Q73.72-0.16 72.60-0.16L72.60-0.16Q71.52-0.16 70.08-0.08L70.08-0.08Q68.80 0 67.96 0L67.96 0Q67.76 0 67.76-0.24Q67.76-0.48 67.96-0.48L67.96-0.48Q69.08-0.48 69.84-0.92Q70.60-1.36 71.32-2.50Q72.04-3.64 73.04-5.88L73.04-5.88L81.64-25.24Q81.72-25.36 82-25.36L82-25.36Q82.28-25.36 82.32-25.24L82.32-25.24L92.12-5.48Q93.52-2.60 94.46-1.54Q95.40-0.48 96.48-0.48L96.48-0.48ZM80.56-20.12L76.40-10.80L85.16-10.80L80.56-20.12Z M131.52-0.48Q131.60-0.48 131.60-0.24Q131.60 0 131.52 0L131.52 0Q130.20 0 129.40-0.04L129.40-0.04L126.52-0.08L123.72-0.04Q123 0 121.68 0L121.68 0Q121.60 0 121.60-0.24Q121.60-0.48 121.68-0.48L121.68-0.48Q123.44-0.48 124.04-0.88Q124.64-1.28 124.64-2.56L124.64-2.56L124.60-3.24L123.80-20.20L115.28-0.28Q115.20-0.12 114.96-0.12L114.96-0.12Q114.76-0.12 114.60-0.28L114.60-0.28L104.60-20.04L104.24-4.84Q104.20-2.72 105.06-1.60Q105.92-0.48 107.64-0.48L107.64-0.48Q107.76-0.48 107.76-0.24Q107.76 0 107.64 0L107.64 0Q106.56 0 105.96-0.04L105.96-0.04L103.76-0.08L101.40-0.04Q100.80 0 99.72 0L99.72 0Q99.60 0 99.60-0.24Q99.60-0.48 99.72-0.48L99.72-0.48Q101.36-0.48 102.26-1.60Q103.16-2.72 103.20-4.84L103.20-4.84L103.56-22.04Q102.84-23.32 101.98-23.92Q101.12-24.52 100-24.52L100-24.52Q99.88-24.52 99.88-24.76Q99.88-25 100-25L100-25L101.72-24.96Q102.24-24.92 103.08-24.92L103.08-24.92L104.96-24.96Q105.28-25 105.76-25L105.76-25Q106.28-25 106.60-24.62Q106.92-24.24 107.60-22.92L107.60-22.92L116.40-5.76L124.36-24Q124.60-24.56 124.88-24.78Q125.16-25 125.56-25L125.56-25Q125.84-25 126.28-24.96Q126.72-24.92 127.36-24.92L127.36-24.92L129.52-24.96Q130.04-25 131.08-25L131.08-25Q131.16-25 131.16-24.76Q131.16-24.52 131.08-24.52L131.08-24.52Q129.16-24.52 128.30-23.82Q127.44-23.12 127.52-21.52L127.52-21.52L128.40-3.24Q128.48-2 128.72-1.44Q128.96-0.88 129.56-0.68Q130.16-0.48 131.52-0.48L131.52-0.48Z M143.20-3.24Q143.20-2 143.40-1.44Q143.60-0.88 144.22-0.68Q144.84-0.48 146.20-0.48L146.20-0.48Q146.32-0.48 146.32-0.24Q146.32 0 146.20 0L146.20 0Q144.92 0 144.16-0.04L144.16-0.04L141.20-0.08L138.32-0.04Q137.56 0 136.24 0L136.24 0Q136.12 0 136.12-0.24Q136.12-0.48 136.24-0.48L136.24-0.48Q137.60-0.48 138.22-0.68Q138.84-0.88 139.08-1.46Q139.32-2.04 139.32-3.24L139.32-3.24L139.32-21.76Q139.32-22.96 139.08-23.52Q138.84-24.08 138.22-24.30Q137.60-24.52 136.24-24.52L136.24-24.52Q136.12-24.52 136.12-24.76Q136.12-25 136.24-25L136.24-25L138.32-24.96Q140.08-24.88 141.20-24.88L141.20-24.88Q142.44-24.88 144.20-24.96L144.20-24.96L146.20-25Q146.32-25 146.32-24.76Q146.32-24.52 146.20-24.52L146.20-24.52Q144.88-24.52 144.26-24.28Q143.64-24.04 143.42-23.46Q143.20-22.88 143.20-21.68L143.20-21.68L143.20-3.24Z M178.00-0.48Q178.12-0.48 178.12-0.24Q178.12 0 178.00 0L178.00 0L171.56 0Q170.64 0 168.14-3.20Q165.64-6.40 162.08-12.16L162.08-12.16Q161.20-12.08 160.72-12.08L160.72-12.08Q159.84-12.08 158.64-12.16L158.64-12.16L158.64-3.24Q158.64-2 158.86-1.44Q159.08-0.88 159.70-0.68Q160.32-0.48 161.68-0.48L161.68-0.48Q161.76-0.48 161.76-0.24Q161.76 0 161.68 0L161.68 0Q160.36 0 159.64-0.04L159.64-0.04L156.68-0.08L153.80-0.04Q153.04 0 151.72 0L151.72 0Q151.60 0 151.60-0.24Q151.60-0.48 151.72-0.48L151.72-0.48Q153.08-0.48 153.70-0.68Q154.32-0.88 154.56-1.46Q154.80-2.04 154.80-3.24L154.80-3.24L154.80-21.76Q154.80-22.96 154.58-23.52Q154.36-24.08 153.72-24.30Q153.08-24.52 151.76-24.52L151.76-24.52Q151.68-24.52 151.68-24.76Q151.68-25 151.76-25L151.76-25L153.84-24.96Q155.60-24.88 156.68-24.88L156.68-24.88Q158.00-24.88 159.56-25L159.56-25Q160.08-25.04 160.82-25.08Q161.56-25.12 162.48-25.12L162.48-25.12Q165.96-25.12 167.86-23.76Q169.76-22.40 169.76-19.96L169.76-19.96Q169.76-17.76 168.54-16Q167.32-14.24 165.28-13.20L165.28-13.20Q168.56-8.36 170.76-5.64Q172.96-2.92 174.66-1.70Q176.36-0.48 178.00-0.48L178.00-0.48ZM158.64-13.24Q159.60-13.08 160.96-13.08L160.96-13.08Q163.56-13.08 164.68-14.38Q165.80-15.68 165.80-18.56L165.80-18.56Q165.80-21.80 164.70-23.08Q163.60-24.36 161.52-24.36L161.52-24.36Q159.96-24.36 159.30-23.78Q158.64-23.20 158.64-21.68L158.64-21.68L158.64-13.24Z"></path></g>
</svg>
</g><g opacity="1" transform="rotate(0 188.29699999999997 0)">
<svg width="46.6191" height="46.7189" x="188.29699999999997" y="0" version="1.1" preserveAspectRatio="none" viewBox="11 10.6587495803833 79.17174530029297 79.34124755859375">
  <g transform="matrix(1 0 0 1 0 0)" class="aJ9wDtsmk0colors-0"><path d="M53,78.127V74c0-2.206-1.794-4-4-4H18c-2.206,0-4,1.794-4,4v4.127c-1.723,0.445-3,2.014-3,3.873v6c0,1.105,0.895,2,2,2h41  c1.105,0,2-0.895,2-2v-6C56,80.141,54.723,78.572,53,78.127z M52,81c0.551,0,1,0.449,1,1H14c0-0.551,0.449-1,1-1H52z M18,73h31  c0.551,0,1,0.449,1,1H17C17,73.449,17.449,73,18,73z M17,75h33v4H17V75z M14,83h39v4H14V83z M89.004,63.176l-1.18-1.18  c-0.858-0.858-2.011-1.249-3.15-1.15L73.158,49.33c0.21-2.417-1.951-4.691-4.484-4.484L61.828,38l0.293-0.293  c1.463,0.785,3.395,0.604,4.703-0.703l1.18-1.18c0.512-0.512,0.855-1.13,1.031-1.784c0.67-0.179,1.285-0.532,1.789-1.036l1.76-1.76  c2.344-2.344,2.342-6.145,0-8.488l-10.34-10.34c-2.341-2.339-6.14-2.347-8.488,0l-1.76,1.76c-0.512,0.512-0.855,1.13-1.031,1.784  c-0.67,0.179-1.285,0.532-1.789,1.036l-1.18,1.18c-1.271,1.271-1.505,3.192-0.702,4.702l-7.416,7.416  c-1.472-0.788-3.4-0.6-4.703,0.703l-1.18,1.18c-0.512,0.512-0.856,1.13-1.031,1.784c-0.67,0.179-1.285,0.532-1.789,1.036l-1.76,1.76  c-2.343,2.344-2.342,6.145,0,8.488l10.34,10.34c2.344,2.344,6.145,2.342,8.488,0l1.76-1.76c0.513-0.513,0.856-1.13,1.031-1.784  c0.67-0.18,1.284-0.532,1.789-1.036l1.18-1.18c1.271-1.271,1.505-3.192,0.702-4.702L55,44.828l6.842,6.842  c-0.209,2.405,1.931,4.683,4.484,4.484L77.842,67.67c-0.1,1.145,0.301,2.299,1.154,3.154l1.18,1.18c1.564,1.563,4.084,1.563,5.648,0  l3.18-3.18C90.561,67.268,90.561,64.732,89.004,63.176z M82.293,69.879l-1.172-1.172c-0.39-0.394-0.39-1.021,0-1.414l3.172-3.172  c0.394-0.39,1.021-0.39,1.414,0l1.172,1.172c0.39,0.394,0.39,1.021,0,1.414l-3.172,3.172C83.329,70.256,82.671,70.256,82.293,69.879  z M47.879,51.707l-1.757,1.757c-0.164,0.164-0.345,0.3-0.533,0.417l-14.47-14.47c0.118-0.189,0.253-0.369,0.417-0.533l1.757-1.757  c0.392-0.39,1.022-0.39,1.414,0l13.172,13.172C48.262,50.678,48.274,51.309,47.879,51.707z M30.715,40.422l13.864,13.864  c-0.948,0.185-1.967-0.089-2.7-0.821L31.536,43.122C30.803,42.389,30.53,41.369,30.715,40.422z M49.293,48.879L36.121,35.707  c-0.39-0.39-0.39-1.024,0-1.414l1.172-1.172c0.389-0.39,1.024-0.389,1.414,0l13.172,13.172c0.391,0.39,0.391,1.024,0,1.414  l-1.172,1.172C50.317,49.269,49.683,49.269,49.293,48.879z M54.121,16.293l1.757-1.757c0.164-0.164,0.345-0.299,0.533-0.417  l14.47,14.47c-0.117,0.189-0.253,0.369-0.417,0.533l-1.757,1.757c-0.378,0.377-1.036,0.377-1.414,0L54.121,17.707  C53.731,17.314,53.731,16.686,54.121,16.293z M71.285,27.578L57.422,13.715c1.009-0.193,2.007,0.128,2.7,0.821l10.343,10.343  C71.197,25.611,71.471,26.631,71.285,27.578z M52.707,19.121l13.172,13.172c0.391,0.39,0.391,1.024,0,1.414l-1.172,1.172  c-0.391,0.39-1.023,0.39-1.414,0L50.121,21.707c-0.39-0.39-0.39-1.024,0-1.414l1.172-1.172  C51.684,18.73,52.317,18.733,52.707,19.121z M56.414,42L59,39.414L66.586,47L64,49.586L56.414,42z M52,43.586L41.414,33L50,24.414  L60.586,35L52,43.586z M65.121,51.293l3.172-3.172c0.952-0.952,2.53,0.643,1.586,1.586l-3.172,3.172  C65.759,53.827,64.173,52.241,65.121,51.293z M68.414,54L71,51.414L82.586,63L80,65.586L68.414,54z M17.5,65H20v1.5  c0,0.829,0.671,1.5,1.5,1.5s1.5-0.671,1.5-1.5V65h2.5c1.93,0,3.5-1.57,3.5-3.5v-4c0-1.93-1.57-3.5-3.5-3.5H23v-5h2.5  c0.276,0,0.5,0.224,0.5,0.5v2c0,0.829,0.671,1.5,1.5,1.5s1.5-0.671,1.5-1.5v-2c0-1.93-1.57-3.5-3.5-3.5H23v-1.5  c0-0.829-0.671-1.5-1.5-1.5S20,43.671,20,44.5V46h-2.5c-1.93,0-3.5,1.57-3.5,3.5v4c0,1.93,1.57,3.5,3.5,3.5H20v5h-2.5  c-0.276,0-0.5-0.225-0.5-0.5v-2c0-0.829-0.671-1.5-1.5-1.5S14,58.671,14,59.5v2C14,63.43,15.57,65,17.5,65z M17.5,54  c-0.276,0-0.5-0.225-0.5-0.5v-4c0-0.276,0.224-0.5,0.5-0.5H20v5H17.5z M23,57h2.5c0.276,0,0.5,0.225,0.5,0.5v4  c0,0.275-0.224,0.5-0.5,0.5H23V57z"></path></g>
</svg>
</g></svg>